<?xml version="1.0" encoding="utf-8"?>
<!-- Generator: Adobe Illustrator 23.0.0, SVG Export Plug-In . SVG Version: 6.00 Build 0)  -->
<svg version="1.2" baseProfile="tiny" id="Calque_1"
	 xmlns="http://www.w3.org/2000/svg" xmlns:xlink="http://www.w3.org/1999/xlink" x="0px" y="0px" viewBox="0 0 800 800"
	 xml:space="preserve">
<g>
	<path d="M759.42,571.61c-23.79-65.6-45.74-131.87-69.18-197.6c-4.99-13.99-5.38-26.13,0.52-39.99
		c14.16-33.26,28.34-66.74,27.59-110.69c-0.17-1.58-0.83-9.78-2-17.91c-8.12-56.43-44.6-99.93-68.32-149.25
		c-7.65-15.92-19.61-26.37-38.42-26.11c-18.8,0.26-29.74,11.47-37.96,27.02c-19.58,37.04-39.94,73.68-59,110.98
		c-6.26,12.25-12.93,18.43-27.92,18.15c-54.36-1.01-108.76-0.88-163.13-0.06c-13.59,0.21-20.85-4.53-26.85-16.2
		c-19.93-38.71-40.18-77.28-61.38-115.3c-18.89-33.88-53.97-33.71-73.66-0.09c-11.63,19.84-21.09,41.02-33.59,60.27
		c-44.1,67.89-49.17,138.03-13.89,210.76c6.7,13.8,5.08,25.81,0.13,39.7C88.1,433.36,65.36,501.97,40.92,569.96
		c-7.24,20.12-4.04,31.22,16.42,40.75c109.42,50.96,218.34,103,327.19,155.15c13.03,6.24,24.07,6.58,37.17,0.18
		c106.95-52.31,214.01-104.41,321.45-155.72C761.81,601.4,766.6,591.41,759.42,571.61z M608.17,70.71
		c62.5,96.87,93.45,148.91,54.43,224.39c-22.53-54.58-62.43-87.15-118.28-104.64C565.74,150.26,586.78,110.81,608.17,70.71z
		 M680.05,459.06c-12.05,1.72-30.89,4.32-32-0.49c-3.87-16.85,5.5-33.22,12.12-56.51C668.15,424.95,673.7,440.87,680.05,459.06z
		 M480.12,225.97c-26.36,45.39-52.26,89.99-79.15,136.29c-27.55-46.39-53.48-90.03-80.95-136.29
		C373.79,225.97,424.86,225.97,480.12,225.97z M196.09,66.2c20.79,39.01,39.42,74.52,58.65,109.69c4.79,8.76,7,13.78-5.63,17.42
		c-49.08,14.12-84.16,45.64-109.71,94.36C101.21,196.86,163.99,137.64,196.09,66.2z M141.34,397.51
		c6.6,25.17,11.21,42.73,16.34,62.31c-14.43,0-24.99,0-37.85,0C126.48,440.57,132.68,422.58,141.34,397.51z M701.48,588.27
		c-86.16,40.6-172.38,81.21-257.11,124.67c-29.02,14.89-51.72,15.7-81.33,0.72c-86.41-43.74-174.58-84.04-262.46-124.83
		c-15.86-7.36-22.01-13.36-14.96-32.44c20.97-56.69,19.93-57.08,82.12-57.49c32.34-0.21,38.55-7.98,30.35-38.57
		c-8.51-31.73-15.14-64.2-26.59-94.85c-11.26-30.14-1.18-54.45,12.99-78.96c7.03-12.17,16.73-22.35,27.7-31.29
		c45.55-37.13,59.31-34.94,88.36,14.13c25.12,42.44,50.28,84.85,75.47,127.24c20.61,34.69,30.35,34.86,50.01,0.78
		c29.98-51.96,60.26-103.76,89.5-156.14c6.97-12.48,13.65-15.27,27.32-10.77c47.85,15.77,93.17,68.23,92.34,111.68
		c-8.56,33.1-17.78,68.88-27.07,104.65c-2.27,8.74-5.36,17.32-7.03,26.17c-2.83,15.01,4.01,23.69,19.06,25.68
		c4.05,0.54,8.23,0.19,12.34,0.24c62.02,0.74,61.34,0.99,81.73,57.86C720.15,573.28,717.77,580.59,701.48,588.27z"/>
	<path d="M426.78,513.78c-9.03-0.31-18.08-0.05-27.12-0.05c-7.4-0.01-14.81,0.28-22.19-0.06c-19.44-0.91-35.93,4.27-45.73,22.46
		c-10.07,18.7-6.77,36.26,5.39,52.95c9.18,12.6,17.27,26.05,27.05,38.14c19.89,24.57,52.15,24.4,71.92-0.44
		c10.71-13.46,20.63-27.68,29.67-42.32C486.64,550.7,466.82,515.15,426.78,513.78z M417.96,585.86
		c-17.79,26.1-18.27,26.12-36.35-0.48c-6.33-9.31-20.52-19.31-15.83-28.74c5.92-11.91,22.68-3.06,34.57-5.79
		c11.46,3.04,28.21-6.45,33.82,6.27C438.34,566.61,424.33,576.52,417.96,585.86z"/>
	<path d="M273.01,377.55c-17.36-1.82-33.41,14.42-33.72,32.2c-0.32,18.21,14.44,33.14,32.7,33.09
		c18.45-0.05,32.74-14.65,32.08-33.32C303.35,389.71,291.48,379.49,273.01,377.55z"/>
	<path d="M526.45,377.33c-18.02,0.97-31.92,16.61-30.53,35.08c1.49,19.78,13.59,29.5,32.42,30.27
		c18.18,0.74,32.84-15.18,32.28-33.35C560.07,391.55,543.89,376.4,526.45,377.33z"/>
</g>
</svg>
